<mxfile host="app.diagrams.net" modified="2023-06-12T10:40:43.009Z" agent="Mozilla/5.0 (Windows NT 10.0; Win64; x64) AppleWebKit/537.36 (KHTML, like Gecko) Chrome/114.0.0.0 Safari/537.36 Edg/114.0.1823.43" version="21.3.2" etag="5T1k4-ZCZ4HnS1TsjPqe" type="github">
  <diagram name="第 1 页" id="lxEVkX4fwtqEKzVEDjjS">
    <mxGraphModel>
      <root>
        <mxCell id="0" />
        <mxCell id="1" parent="0" />
      </root>
    </mxGraphModel>
  </diagram>
</mxfile>
